<svg width="806" height="463" viewBox="0 0 806 463" fill="none" xmlns="http://www.w3.org/2000/svg">
<rect x="0.03125" y="299.062" width="422.937" height="142.705" rx="6" transform="rotate(-45 0.03125 299.062)" fill="url(#paint0_linear)"/>
<rect x="299.062" y="399.969" width="422.937" height="142.705" rx="6" transform="rotate(-135 299.062 399.969)" fill="url(#paint1_linear)"/>
<g filter="url(#filter0_d)">
<ellipse cx="199.09" cy="324.778" rx="154.848" ry="47.2589" fill="white" fill-opacity="0.01"/>
</g>
<path fill-rule="evenodd" clip-rule="evenodd" d="M599.5 399C709.681 399 799 309.681 799 199.5C799 89.3192 709.681 0 599.5 0C489.319 0 400 89.3192 400 199.5C400 309.681 489.319 399 599.5 399ZM600.895 256.703C633.256 256.703 659.489 230.47 659.489 198.109C659.489 165.748 633.256 139.514 600.895 139.514C568.534 139.514 542.3 165.748 542.3 198.109C542.3 230.47 568.534 256.703 600.895 256.703Z" fill="url(#paint2_linear)"/>
<g filter="url(#filter1_d)">
<ellipse cx="610.496" cy="309.778" rx="154.387" ry="47.1181" fill="white" fill-opacity="0.01"/>
</g>
<defs>
<filter id="filter0_d" x="3.24219" y="277.52" width="391.697" height="184.518" filterUnits="userSpaceOnUse" color-interpolation-filters="sRGB">
<feFlood flood-opacity="0" result="BackgroundImageFix"/>
<feColorMatrix in="SourceAlpha" type="matrix" values="0 0 0 0 0 0 0 0 0 0 0 0 0 0 0 0 0 0 127 0"/>
<feOffset dy="49"/>
<feGaussianBlur stdDeviation="20.5"/>
<feColorMatrix type="matrix" values="0 0 0 0 0.235294 0 0 0 0 0.509804 0 0 0 0 0.945098 0 0 0 0.75 0"/>
<feBlend mode="normal" in2="BackgroundImageFix" result="effect1_dropShadow"/>
<feBlend mode="normal" in="SourceGraphic" in2="effect1_dropShadow" result="shape"/>
</filter>
<filter id="filter1_d" x="415.109" y="262.66" width="390.774" height="184.236" filterUnits="userSpaceOnUse" color-interpolation-filters="sRGB">
<feFlood flood-opacity="0" result="BackgroundImageFix"/>
<feColorMatrix in="SourceAlpha" type="matrix" values="0 0 0 0 0 0 0 0 0 0 0 0 0 0 0 0 0 0 127 0"/>
<feOffset dy="49"/>
<feGaussianBlur stdDeviation="20.5"/>
<feColorMatrix type="matrix" values="0 0 0 0 0.988235 0 0 0 0 0.47451 0 0 0 0 0.188235 0 0 0 0.75 0"/>
<feBlend mode="normal" in2="BackgroundImageFix" result="effect1_dropShadow"/>
<feBlend mode="normal" in="SourceGraphic" in2="effect1_dropShadow" result="shape"/>
</filter>
<linearGradient id="paint0_linear" x1="-2.53502" y1="382.639" x2="426.199" y2="366.286" gradientUnits="userSpaceOnUse">
<stop stop-color="#387DF2"/>
<stop offset="1" stop-color="#81E1D5"/>
</linearGradient>
<linearGradient id="paint1_linear" x1="304.889" y1="483.406" x2="686.697" y2="481.273" gradientUnits="userSpaceOnUse">
<stop stop-color="#3275F4"/>
<stop offset="0.9375" stop-color="#80DFD6"/>
</linearGradient>
<linearGradient id="paint2_linear" x1="487.187" y1="339.852" x2="758.868" y2="76.191" gradientUnits="userSpaceOnUse">
<stop stop-color="#FB5D1B"/>
<stop offset="1" stop-color="#FFE27E"/>
</linearGradient>
</defs>
</svg>
