<svg width="25" height="24" viewBox="0 0 25 24" fill="none" xmlns="http://www.w3.org/2000/svg">
<path d="M2.28672 10.6195C2.21793 11.1303 2.38238 11.6346 2.73734 12.0039C3.08605 12.3661 3.57581 12.5472 4.08733 12.4982C4.49337 12.4599 4.85587 12.7604 4.92327 13.1797C5.00216 13.6747 5.13262 14.1636 5.30937 14.6322C5.4629 15.0382 5.29733 15.4732 4.92611 15.6425C4.46637 15.8506 4.13375 16.2517 4.01236 16.7421C3.88975 17.2403 4.00014 17.7601 4.31763 18.1674C4.83334 18.8312 5.43034 19.4288 6.09232 19.9429C6.50198 20.2605 7.02373 20.3731 7.52246 20.2498C8.01221 20.1296 8.41366 19.7969 8.62217 19.3372C8.79225 18.9633 9.22768 18.8085 9.6368 18.9554C10.0969 19.1323 10.5907 19.2646 11.0784 19.3417C11.512 19.4206 11.806 19.77 11.7656 20.1785C11.716 20.6818 11.8965 21.1704 12.2605 21.5195C12.6325 21.876 13.1388 22.0398 13.6532 21.9698C14.4847 21.8549 15.3005 21.6359 16.0779 21.3195C16.5559 21.1244 16.912 20.7305 17.0541 20.2375C17.195 19.7524 17.1068 19.2377 16.8132 18.8258C16.5755 18.4934 16.65 18.0358 16.9862 17.7601C17.3749 17.4412 17.7321 17.0839 18.0466 16.6962C18.3159 16.3653 18.7839 16.2891 19.1189 16.5296C19.5289 16.8219 20.042 16.9095 20.5267 16.7706C21.0186 16.6292 21.414 16.2749 21.6098 15.7981C21.771 15.4064 21.9073 15.0026 22.0158 14.5978C22.1243 14.1929 22.2081 13.7751 22.2641 13.3562C22.3328 12.8454 22.1686 12.3402 21.8134 11.9718C21.4633 11.6083 20.9748 11.4257 20.4626 11.4773C20.064 11.5148 19.6953 11.2172 19.6275 10.796C19.549 10.3029 19.4185 9.81401 19.2414 9.34352C19.0878 8.93744 19.2532 8.50332 19.6255 8.33346C20.0844 8.12506 20.417 7.72398 20.5384 7.23361C20.661 6.7354 20.5506 6.2156 20.2342 5.80763C19.7198 5.14599 19.1228 4.54845 18.4595 4.03214C18.2777 3.89082 18.0739 3.79082 17.8596 3.73339C17.5911 3.66145 17.3064 3.65686 17.0291 3.72601C16.5394 3.84623 16.1377 4.1798 15.9294 4.63871C15.7593 5.01254 15.3178 5.17293 14.915 5.01963C14.4549 4.84278 13.9611 4.71046 13.4734 4.63336C13.0414 4.56205 12.7466 4.20529 12.7862 3.7965C12.8347 3.29386 12.6542 2.80521 12.2902 2.45622C11.9185 2.09878 11.4117 1.93671 10.8984 2.00615C10.0669 2.12106 9.25116 2.34004 8.47375 2.65642C7.99573 2.85152 7.64024 3.24648 7.49731 3.73925C7.35725 4.22462 7.4456 4.7385 7.74031 5.14973C7.97721 5.48193 7.9027 5.93945 7.56648 6.21519C7.17829 6.53241 6.82148 6.89162 6.50611 7.27916C6.23571 7.61066 5.76614 7.68275 5.44118 7.45224L5.43275 7.44636C5.02168 7.15102 4.50733 7.06495 4.02427 7.20423C3.53138 7.34634 3.13764 7.70109 2.94203 8.17702C2.78064 8.5659 2.64433 8.96964 2.53494 9.3779C2.42555 9.78616 2.3418 10.204 2.28672 10.6195ZM13.2967 8.17639C15.3981 8.73945 16.6499 10.9077 16.0869 13.0091C15.5238 15.1105 13.3555 16.3624 11.2541 15.7993C9.15275 15.2362 7.90088 13.068 8.46395 10.9666C9.02701 8.86519 11.1953 7.61332 13.2967 8.17639Z" fill="url(#paint0_linear)"/>
<defs>
<linearGradient id="paint0_linear" x1="9.83769" y1="21.0854" x2="14.7131" y2="2.89028" gradientUnits="userSpaceOnUse">
<stop stop-color="#3476F0"/>
<stop offset="1" stop-color="#80DED5"/>
</linearGradient>
</defs>
</svg>
