<svg width="406" height="447" viewBox="0 0 406 447" fill="none" xmlns="http://www.w3.org/2000/svg">
<path fill-rule="evenodd" clip-rule="evenodd" d="M199.5 399C309.681 399 399 309.681 399 199.5C399 89.3192 309.681 0 199.5 0C89.3192 0 0 89.3192 0 199.5C0 309.681 89.3192 399 199.5 399ZM200.895 256.703C233.256 256.703 259.489 230.47 259.489 198.109C259.489 165.748 233.256 139.514 200.895 139.514C168.534 139.514 142.3 165.748 142.3 198.109C142.3 230.47 168.534 256.703 200.895 256.703Z" fill="url(#paint0_linear)"/>
<g filter="url(#filter0_d)">
<ellipse cx="210.496" cy="309.778" rx="154.387" ry="47.1181" fill="white" fill-opacity="0.01"/>
</g>
<defs>
<filter id="filter0_d" x="15.1094" y="262.66" width="390.774" height="184.236" filterUnits="userSpaceOnUse" color-interpolation-filters="sRGB">
<feFlood flood-opacity="0" result="BackgroundImageFix"/>
<feColorMatrix in="SourceAlpha" type="matrix" values="0 0 0 0 0 0 0 0 0 0 0 0 0 0 0 0 0 0 127 0"/>
<feOffset dy="49"/>
<feGaussianBlur stdDeviation="20.5"/>
<feColorMatrix type="matrix" values="0 0 0 0 0.988235 0 0 0 0 0.47451 0 0 0 0 0.188235 0 0 0 0.75 0"/>
<feBlend mode="normal" in2="BackgroundImageFix" result="effect1_dropShadow"/>
<feBlend mode="normal" in="SourceGraphic" in2="effect1_dropShadow" result="shape"/>
</filter>
<linearGradient id="paint0_linear" x1="87.1872" y1="339.852" x2="358.868" y2="76.191" gradientUnits="userSpaceOnUse">
<stop stop-color="#FB5D1B"/>
<stop offset="1" stop-color="#FFE27E"/>
</linearGradient>
</defs>
</svg>
