<svg width="20" height="21" viewBox="0 0 20 21" fill="none" xmlns="http://www.w3.org/2000/svg">
<path d="M9.61425 20.2168C11.5154 20.2168 13.3738 19.653 14.9546 18.5968C16.5353 17.5406 17.7673 16.0394 18.4949 14.283C19.2224 12.5265 19.4128 10.5938 19.0419 8.72922C18.671 6.86462 17.7555 5.15187 16.4112 3.80757C14.7607 2.15719 12.5661 1.16368 10.2369 1.01241C7.90772 0.861138 5.60307 1.56244 3.75295 2.98547C2.10963 4.25466 0.918124 6.01876 0.354462 8.01717C0.318567 8.1432 0.307938 8.27508 0.323184 8.40524C0.33843 8.53539 0.379251 8.66124 0.443301 8.77557C0.507351 8.88989 0.593366 8.99043 0.696402 9.0714C0.799437 9.15236 0.917461 9.21217 1.04369 9.24737C1.16991 9.28257 1.30185 9.29248 1.43192 9.27652C1.56199 9.26056 1.68762 9.21904 1.80159 9.15437C1.91556 9.08969 2.01562 9.00312 2.09602 8.89964C2.17642 8.79617 2.23558 8.67782 2.27008 8.5514C2.71753 6.96641 3.66291 5.56737 4.96658 4.56097C6.29658 3.53134 7.93229 2.97527 9.61425 2.98095C13.8179 2.98095 17.2378 6.40086 17.2378 10.6045C17.2378 14.8081 13.8179 18.228 9.61425 18.228C7.9323 18.2337 6.2966 17.6776 4.96662 16.648C3.66293 15.6416 2.71752 14.2426 2.27008 12.6576C2.23558 12.5312 2.17642 12.4128 2.09602 12.3093C2.01562 12.2059 1.91556 12.1193 1.80159 12.0546C1.68762 11.9899 1.56199 11.9484 1.43192 11.9325C1.30185 11.9165 1.16991 11.9264 1.04369 11.9616C0.91746 11.9968 0.799437 12.0566 0.696402 12.1376C0.593366 12.2186 0.50735 12.3191 0.4433 12.4334C0.37925 12.5477 0.33843 12.6736 0.323184 12.8037C0.307937 12.9339 0.318566 13.0658 0.354461 13.1918C0.91811 15.1902 2.10961 16.9544 3.75294 18.2236C5.43019 19.5222 7.49301 20.2237 9.61425 20.2168V20.2168Z" fill="url(#paint0_linear)"/>
<path d="M1.33169 9.27684C1.42664 9.27685 1.5211 9.26323 1.61218 9.2364L7.24677 7.57911C7.37304 7.54315 7.49095 7.48253 7.59367 7.40075C7.6964 7.31898 7.78191 7.21767 7.84528 7.10267C7.90865 6.98768 7.94861 6.86127 7.96287 6.73075C7.97713 6.60022 7.96539 6.46817 7.92835 6.3422C7.8913 6.21624 7.82967 6.09886 7.74702 5.99684C7.66437 5.89482 7.56234 5.81017 7.4468 5.74779C7.33127 5.68541 7.20452 5.64653 7.07388 5.63339C6.94324 5.62025 6.81129 5.63311 6.68565 5.67124L2.25488 6.97445L1.99303 2.26107C1.98698 2.12984 1.95498 2.00111 1.89889 1.88231C1.8428 1.76352 1.76373 1.65702 1.66624 1.56896C1.56875 1.4809 1.45478 1.41303 1.33091 1.36928C1.20704 1.32552 1.07573 1.30674 0.94456 1.31403C0.813392 1.32132 0.684968 1.35452 0.566706 1.41173C0.448445 1.46893 0.342691 1.549 0.255555 1.64732C0.168418 1.74563 0.101627 1.86023 0.0590382 1.98451C0.0164495 2.10879 -0.0010924 2.24027 0.00742737 2.37136L0.338885 8.33761C0.352981 8.59139 0.463722 8.83014 0.64836 9.00482C0.832998 9.17949 1.07752 9.27683 1.33169 9.27684Z" fill="url(#paint1_linear)"/>
<defs>
<linearGradient id="paint0_linear" x1="18.0996" y1="14.4494" x2="-1.25756" y2="-2.67595" gradientUnits="userSpaceOnUse">
<stop stop-color="#377BF3"/>
<stop offset="1" stop-color="#7DDCD7"/>
</linearGradient>
<linearGradient id="paint1_linear" x1="3.98704" y1="1.3125" x2="3.98704" y2="9.27684" gradientUnits="userSpaceOnUse">
<stop stop-color="#3D82F2"/>
<stop offset="1" stop-color="#7DDAD8"/>
</linearGradient>
</defs>
</svg>
