<svg width="166" height="166" viewBox="0 0 166 166" fill="none" xmlns="http://www.w3.org/2000/svg">
<g filter="url(#filter0_d)">
<path d="M114.362 7.77862L11.7899 110.351C7.49413 114.647 7.49413 121.611 11.7899 125.907L36.092 150.209C40.3877 154.505 47.3525 154.505 51.6483 150.209L154.221 47.637C158.516 43.3413 158.516 36.3764 154.221 32.0807L129.918 7.77862C125.623 3.48285 118.658 3.48285 114.362 7.77862Z" fill="#FFC928"/>
<path d="M11.7786 47.6376L114.351 150.21C118.647 154.506 125.611 154.506 129.907 150.21L154.209 125.908C158.505 121.612 158.505 114.647 154.209 110.351L51.637 7.77923C47.3413 3.48346 40.3765 3.48346 36.0807 7.77923L11.7786 32.0813C7.48287 36.377 7.48287 43.3419 11.7786 47.6376Z" fill="#FFC928"/>
</g>
<defs>
<filter id="filter0_d" x="0" y="0" width="166" height="166" filterUnits="userSpaceOnUse" color-interpolation-filters="sRGB">
<feFlood flood-opacity="0" result="BackgroundImageFix"/>
<feColorMatrix in="SourceAlpha" type="matrix" values="0 0 0 0 0 0 0 0 0 0 0 0 0 0 0 0 0 0 127 0"/>
<feOffset dy="4"/>
<feGaussianBlur stdDeviation="2"/>
<feColorMatrix type="matrix" values="0 0 0 0 0 0 0 0 0 0 0 0 0 0 0 0 0 0 0.25 0"/>
<feBlend mode="normal" in2="BackgroundImageFix" result="effect1_dropShadow"/>
<feBlend mode="normal" in="SourceGraphic" in2="effect1_dropShadow" result="shape"/>
</filter>
</defs>
</svg>
